<?xml version="1.0" encoding="utf-8"?>
<!-- Generator: Adobe Illustrator 19.2.1, SVG Export Plug-In . SVG Version: 6.00 Build 0)  -->
<svg version="1.1" id="Layer_1" xmlns="http://www.w3.org/2000/svg" xmlns:xlink="http://www.w3.org/1999/xlink" x="0px" y="0px"
	 viewBox="0 0 900 900" style="enable-background:new 0 0 900 900;" xml:space="preserve">
<style type="text/css">
	.st0{fill:#FF0000;}
	.st1{fill:#FFFFFF;}
</style>
<g>
	<path class="st0" d="M65.5,33.8h-9.2l-2.4,6.9h-2.8l8.2-23.1h3.3l8.3,23.1h-3L65.5,33.8z M59.9,23.3l-2.9,8.3h7.7l-2.9-8.3
		c-0.5-1.4-0.9-2.9-0.9-2.9h-0.1C60.8,20.5,60.4,22,59.9,23.3z"/>
	<path class="st0" d="M74.9,24.8h2.6v2.7h0.1c0.9-1.7,2.7-3,5.1-3c3.4,0,6.4,2.1,6.4,8.1c0,5.8-3,8.6-6.6,8.6
		c-2.3,0-4.2-1.3-4.8-2.7h-0.1v8h-2.7V24.8z M82.1,38.9c2.8,0,4.2-2.3,4.2-6.4c0-3.4-1-5.9-4.2-5.9c-2.8,0-4.5,2.4-4.5,5.1v1.7
		C77.5,36.4,79.1,38.9,82.1,38.9z"/>
	<path class="st0" d="M93.3,24.8h2.6v3h0.1c0.7-1.7,2.7-3.3,5-3.3h0.3v2.8h-0.5c-2.8,0-4.7,1.6-4.7,4.7v8.6h-2.7V24.8z"/>
	<path class="st0" d="M105,18.2h2.9v2.9H105V18.2z M105.1,24.8h2.7v15.9h-2.7V24.8z"/>
	<path class="st0" d="M113.5,16.9h2.7v23.7h-2.7V16.9z"/>
	<path class="st0" d="M139.4,20.8h-11v-2.4h14.2v1.8l-9.3,20.6h-2.9L139.4,20.8z"/>
	<path class="st0" d="M144,29.7h13v2.1h-13V29.7z"/>
	<path class="st0" d="M168,18c4.3,0,7.1,2.7,7.1,6.1c0,2.7-1.8,4.6-3.6,5.2v0.1c1.9,0.5,4.3,2,4.3,5.4c0,3.6-3,6.4-7.7,6.4
		s-7.7-2.7-7.7-6.4c0-3.4,2.4-5,4.2-5.4v-0.1c-1.8-0.6-3.6-2.5-3.6-5.2C161,20.7,163.7,18,168,18z M172.9,34.7c0-3-2.3-4.3-4.9-4.3
		c-2.5,0-4.9,1.3-4.9,4.3c0,3,2.3,4.2,4.9,4.2C170.7,39,172.9,37.7,172.9,34.7z M163.8,24.2c0,2.7,2,4.1,4.2,4.1
		c2.2,0,4.2-1.4,4.2-4.1c0-2.8-2-4.1-4.2-4.1C165.7,20.2,163.8,21.5,163.8,24.2z"/>
</g>
<g>
	<path class="st1" d="M700,31.6l-8.1-13.2h3.3l6.2,10.6h0.1l6.5-10.6h3l-8.1,13v10H700V31.6z"/>
	<path class="st1" d="M711.6,29.9c0.1-2.8,2.2-4.7,6-4.7c3.9,0,5.9,1.7,5.9,5.9v6.5c0,1.3,0.3,1.8,1.4,1.8v2.2h-0.3
		c-2.5,0-3.4-0.9-3.6-2.8h-0.1c-0.8,1.9-2.7,3-5.1,3c-3.2,0-5-1.7-5-4.6c0-1.7,0.8-3.2,2.4-4c1.7-0.9,4.1-1.2,7.7-1.3v-0.7
		c0-2.9-1.1-4-3.3-4c-2.4,0-3.2,1.4-3.3,2.7H711.6z M720.8,34.3v-0.4c-3.4,0.2-5.4,0.4-6.4,1.2c-0.6,0.5-0.9,1.1-0.9,2
		c0,1.6,1.1,2.5,2.8,2.5C718.3,39.6,720.8,38.2,720.8,34.3z"/>
	<path class="st1" d="M728.9,17.7h2.7v23.7h-2.7V17.7z"/>
	<path class="st1" d="M743,41.9c-4.9,0-7.2-3.5-7.2-8.3c0-4.7,2.5-8.4,7.1-8.4c4.8,0,6.6,3.7,6.6,7.7v1.4h-10.9
		c0.2,3.3,1.5,5.5,4.5,5.5c2.7,0,3.3-1.5,3.6-2.5h2.6C748.7,40.1,746.4,41.9,743,41.9z M746.7,32c-0.1-2.7-1.1-4.7-3.9-4.7
		c-2.5,0-3.9,2-4.2,4.9h8.1V32z"/>
	<path class="st1" d="M774.9,24.6c-0.3-2.3-1.6-4.3-4.8-4.3c-3.1,0-4.8,1.8-4.8,4c0,2.1,1.1,3.3,3.9,3.8l3.3,0.6
		c4.5,0.8,6.1,3,6.1,6.3c0,4.2-2.9,6.9-8.4,6.9c-5.3,0-8.4-2.9-8.6-6.9h2.9c0.3,2.5,2,4.7,5.8,4.7c4.1,0,5.5-2,5.5-4.4
		c0-2-1.1-3.4-3.9-3.9l-3.2-0.6c-4.5-0.8-6.1-3.3-6.1-6.3c0-3.7,3.1-6.4,7.8-6.4c4.9,0,7.4,2.6,7.6,6.5H774.9z"/>
	<path class="st1" d="M792.9,30.4c-0.2-1.6-1.3-3.1-3.6-3.1c-2.9,0-4.4,2.5-4.4,6.2c0,3.7,1.1,6.2,4.3,6.2c3,0,3.8-2.2,3.9-3.4h2.5
		c-0.4,3.7-3,5.5-6.4,5.5c-4.6,0-7.1-3.2-7.1-8.2c0-4.9,2.7-8.4,7.1-8.4c3.2,0,6,1.4,6.3,5.2H792.9z"/>
	<path class="st1" d="M809.6,31.7c0-1.1,0-2.4-0.6-3.1c-0.5-0.8-1.4-1.1-2.5-1.1c-3,0-4.3,1.9-4.3,4.5v9.5h-2.7V17.7h2.7v10.5h0.1
		c0.7-1.5,2.4-3,5-3c3,0,5.1,1.4,5.1,5.2v11.1h-2.7V31.7z"/>
	<path class="st1" d="M816.4,33.5c0-4.9,2.7-8.3,7.1-8.3c4.7,0,7.1,3.4,7.1,8.3c0,5-2.7,8.3-7.1,8.3
		C818.8,41.9,816.4,38.5,816.4,33.5z M819.2,33.5c0,3.9,1.3,6.2,4.4,6.2c3,0,4.2-2.4,4.2-6.2c0-3.9-1.3-6.2-4.3-6.2
		C820.6,27.3,819.2,29.7,819.2,33.5z"/>
	<path class="st1" d="M833.8,33.5c0-4.9,2.7-8.3,7.1-8.3c4.7,0,7.1,3.4,7.1,8.3c0,5-2.7,8.3-7.1,8.3
		C836.2,41.9,833.8,38.5,833.8,33.5z M836.6,33.5c0,3.9,1.3,6.2,4.4,6.2c3,0,4.2-2.4,4.2-6.2c0-3.9-1.3-6.2-4.3-6.2
		C838,27.3,836.6,29.7,836.6,33.5z"/>
	<path class="st1" d="M852.3,17.7h2.7v23.7h-2.7V17.7z"/>
</g>
<g>
	<path class="st1" d="M871.4,44.8c4.9,0,8.3,2.7,8.3,7.1c0,4.7-3.4,7.1-8.3,7.1c-5,0-8.3-2.7-8.3-7.1
		C863.1,47.3,866.5,44.8,871.4,44.8z M871.4,47.6c-3.9,0-6.2,1.3-6.2,4.4c0,3,2.4,4.2,6.2,4.2c3.9,0,6.2-1.3,6.2-4.3
		C877.7,49.1,875.3,47.6,871.4,47.6z"/>
	<path class="st1" d="M863.5,66.7V64h13.8v-2.9h2.1V64h3.6c3.3,0,4.4,1.9,4.4,4.8c0,0.6-0.1,1.2-0.2,1.7h-2.2
		c0.1-0.3,0.1-0.8,0.1-1.5c0-1.6-0.6-2.3-2.5-2.3h-3.2v3.8h-2.1v-3.8H863.5z"/>
	<path class="st1" d="M870.3,95.1v-9.2l-6.9-2.4v-2.8l23.1,8.2v3.3l-23.1,8.3v-3L870.3,95.1z M880.9,89.5l-8.3-2.9v7.7l8.3-2.9
		c1.4-0.5,2.9-0.9,2.9-0.9v-0.1C883.6,90.4,882.2,90,880.9,89.5z"/>
	<path class="st1" d="M879.4,104.5v2.6h-3v0.1c1.7,0.7,3.3,2.7,3.3,5v0.3h-2.8v-0.5c0-2.8-1.6-4.7-4.7-4.7h-8.6v-2.7H879.4z"/>
	<path class="st1" d="M884,120.1h-4.6v3.9h-2.1v-3.9h-9.4c-1.7,0-2.4,0.7-2.4,2.4c0,0.8,0.2,1.7,0.2,1.7h-2.3c0,0-0.2-1.1-0.2-2.5
		c0-3.1,1.5-4.3,4.2-4.3h9.8v-2.9h2v0.5c0,2.1,0.5,2.6,3.6,2.6h1.1V120.1z"/>
</g>
<g>
	<path class="st1" d="M870.7,668.4h2.5v1.2c0,2.3,1.7,4,3.9,4c2.4,0,3.9-1.7,3.9-4.1c0-2.8-1.4-4.4-4.4-4.5v-2.7
		c3.6,0,6.7,2.5,6.7,7.2c0,4.2-2.6,6.8-6,6.8c-2.3,0-4.1-1.6-5.1-3.7h-0.1c-0.6,2.2-2.2,4.3-5.6,4.3c-3.4,0-6.4-2.8-6.4-7.6
		c0-5.1,3.1-7.3,6.7-7.5v2.7c-3,0.4-4.4,2.4-4.4,5c0,2.6,1.6,4.6,4.1,4.6c2.7,0,4.2-1.7,4.2-4.6V668.4z"/>
	<path class="st1" d="M876.1,681.1c4.5,0,7.2,3.2,7.2,7.2c0,4.9-3.1,6.9-6.1,6.9c-3.1,0-4.8-1.3-8.3-4.9l-5.8-6.1h0v11.2h-2.4v-14.8
		h2.1l7.6,7.7c2.6,2.5,4.2,4.2,6.8,4.2c2.3,0,4-1.5,4-4c0-2.4-1.4-4.4-4.9-4.4V681.1z"/>
	<path class="st1" d="M883.7,708.7v14.7h-2.5v-11.9h-7.7v11H871v-11h-7.9v12.1h-2.5v-14.9H883.7z"/>
	<path class="st1" d="M860.6,741.3v-2.6h2.6v-0.1c-1.6-0.8-3-2.6-3-5c0-3.4,2.1-6.5,8.2-6.5c5.5,0,8.4,2.8,8.4,6.8
		c0,2.4-1.3,3.9-2.8,4.6v0.1h10.3v2.7H860.6z M869.2,738.6c3.4,0,5.5-1.8,5.5-4.3c0-3-2.4-4.4-6.1-4.4c-3.6,0-6.2,1.1-6.2,4.2
		c0,2.8,2.2,4.5,5.1,4.5H869.2z"/>
	<path class="st1" d="M859,745.9v2.6c-1.4,0.3-2.2,1.3-2.2,3.9c0,3,1.1,4.5,4.6,4.5h2.4v0c-1.6-0.8-2.9-2.7-2.9-5.1
		c0-3.3,2.1-6.4,8-6.4c5.2,0,8.1,2.8,8.1,6.7c0,2.6-1.4,4.1-2.9,4.8v0.1h2.5v2.6H861c-4.5,0-6.4-2.9-6.4-7.2
		C854.6,749.4,855.7,746.3,859,745.9z M869.4,757.1c3.2,0,5.3-1.8,5.3-4.5c0-2.9-2.4-4.2-6-4.2c-3.5,0-5.9,1-5.9,4.3
		c0,2.6,2.2,4.4,4.9,4.4H869.4z"/>
	<path class="st1" d="M860.2,771.1c0-4.9,3.5-7.2,8.3-7.2c4.7,0,8.4,2.5,8.4,7.1c0,4.8-3.7,6.6-7.7,6.6h-1.4v-10.9
		c-3.3,0.2-5.5,1.5-5.5,4.5c0,2.7,1.5,3.3,2.5,3.6v2.6C862,776.8,860.2,774.5,860.2,771.1z M870.1,774.8c2.7-0.1,4.7-1.1,4.7-3.9
		c0-2.5-2-3.9-4.9-4.2v8.1H870.1z"/>
	<path class="st1" d="M876.5,779.9v2.8l-10.7,3.1c-1,0.3-2,0.5-2,0.5v0.1c0,0,1.1,0.3,2,0.6l10.7,3.4v2.8l-10.7,3.3
		c-0.9,0.3-2,0.6-2,0.6v0.1c0,0,1.1,0.2,2,0.5l10.7,3.1v2.6l-15.9-4.9v-2.9l9.3-2.9c1.5-0.5,3.4-1,3.4-1v0c0,0-1.9-0.5-3.4-1
		l-9.3-2.9v-2.9L876.5,779.9z"/>
	<path class="st1" d="M868.6,805.4c4.9,0,8.3,2.7,8.3,7.1c0,4.7-3.4,7.1-8.3,7.1c-5,0-8.3-2.7-8.3-7.1
		C860.2,807.8,863.6,805.4,868.6,805.4z M868.6,808.2c-3.9,0-6.2,1.3-6.2,4.4c0,3,2.4,4.2,6.2,4.2c3.9,0,6.2-1.3,6.2-4.3
		C874.8,809.6,872.4,808.2,868.6,808.2z"/>
	<path class="st1" d="M868.6,822.8c4.9,0,8.3,2.7,8.3,7.1c0,4.7-3.4,7.1-8.3,7.1c-5,0-8.3-2.7-8.3-7.1
		C860.2,825.2,863.6,822.8,868.6,822.8z M868.6,825.6c-3.9,0-6.2,1.3-6.2,4.4c0,3,2.4,4.2,6.2,4.2c3.9,0,6.2-1.3,6.2-4.3
		C874.8,827,872.4,825.6,868.6,825.6z"/>
	<path class="st1" d="M860.6,854.3v-2.6h2.6v-0.1c-1.6-0.8-3-2.6-3-5c0-3.4,2.1-6.5,8.2-6.5c5.5,0,8.4,2.8,8.4,6.8
		c0,2.4-1.3,3.9-2.8,4.6v0.1h10.3v2.7H860.6z M869.2,851.7c3.4,0,5.5-1.8,5.5-4.3c0-3-2.4-4.4-6.1-4.4c-3.6,0-6.2,1.1-6.2,4.2
		c0,2.8,2.2,4.5,5.1,4.5H869.2z"/>
</g>
<g>
	<path class="st1" d="M706.9,871.5V869h1.2c2.3,0,4-1.7,4-3.9c0-2.4-1.7-3.9-4.1-3.9c-2.8,0-4.4,1.4-4.5,4.4h-2.7
		c0-3.6,2.5-6.7,7.2-6.7c4.2,0,6.8,2.6,6.8,6c0,2.3-1.6,4.1-3.7,5.1v0.1c2.2,0.6,4.3,2.2,4.3,5.6c0,3.4-2.8,6.4-7.6,6.4
		c-5.1,0-7.3-3.1-7.5-6.7h2.7c0.4,3,2.4,4.4,5,4.4c2.6,0,4.6-1.6,4.6-4.1c0-2.7-1.7-4.2-4.6-4.2H706.9z"/>
	<path class="st1" d="M726.5,869.2c-1.8,0-3.3,0.7-4.1,2H720l1-11.9h11.9v2.4h-9.6l-0.6,7.1h0.1c0.8-0.9,2.3-1.8,4.3-1.8
		c3.5,0,6.9,2.2,6.9,7.5c0,4.6-3,7.7-7.7,7.7c-5,0-6.9-3.2-7.1-6.3h2.7c0.2,2.8,1.9,4,4.5,4c2.3,0,4.7-1.6,4.7-5.3
		C731.2,871,729.1,869.2,726.5,869.2z"/>
	<path class="st1" d="M744.4,871.5V869h1.2c2.3,0,4-1.7,4-3.9c0-2.4-1.7-3.9-4.1-3.9c-2.8,0-4.4,1.4-4.5,4.4h-2.7
		c0-3.6,2.5-6.7,7.2-6.7c4.2,0,6.8,2.6,6.8,6c0,2.3-1.6,4.1-3.7,5.1v0.1c2.2,0.6,4.3,2.2,4.3,5.6c0,3.4-2.8,6.4-7.6,6.4
		c-5.1,0-7.3-3.1-7.5-6.7h2.7c0.4,3,2.4,4.4,5,4.4c2.6,0,4.6-1.6,4.6-4.1c0-2.7-1.7-4.2-4.6-4.2H744.4z"/>
	<path class="st1" d="M768,870.1c0,6,2.7,9.6,7.3,9.6c4.1,0,5.8-2.7,6.1-5.4h2.9c-0.4,4.3-3.7,7.7-8.9,7.7c-6,0-10.2-3.9-10.2-11.9
		c0-7.5,4.3-11.9,10.3-11.9c3.9,0,8.3,2.1,8.9,7.2h-3c-0.4-2.4-2.2-4.9-5.9-4.9C770.6,860.4,768,864.3,768,870.1z"/>
	<path class="st1" d="M788.9,865.7h2.6v3h0.1c0.7-1.7,2.7-3.3,5-3.3h0.3v2.8h-0.5c-2.8,0-4.7,1.6-4.7,4.7v8.6h-2.7V865.7z"/>
	<path class="st1" d="M798.9,873.6c0-4.9,2.7-8.3,7.1-8.3c4.7,0,7.1,3.4,7.1,8.3c0,5-2.7,8.3-7.1,8.3
		C801.4,882,798.9,878.6,798.9,873.6z M801.7,873.6c0,3.9,1.3,6.2,4.4,6.2c3,0,4.2-2.4,4.2-6.2c0-3.9-1.3-6.2-4.3-6.2
		C803.2,867.4,801.7,869.8,801.7,873.6z"/>
	<path class="st1" d="M815.3,865.7h2.8l3.1,10.7c0.3,1,0.5,2,0.5,2h0.1c0,0,0.3-1.1,0.6-2l3.4-10.7h2.8l3.3,10.7
		c0.3,0.9,0.6,2,0.6,2h0.1c0,0,0.2-1.1,0.5-2l3.1-10.7h2.6l-4.9,15.9h-2.9l-2.9-9.3c-0.5-1.5-1-3.4-1-3.4h0c0,0-0.5,1.9-1,3.4
		l-2.9,9.3h-2.9L815.3,865.7z"/>
	<path class="st1" d="M852.4,871.8c0-1.1,0-2.4-0.6-3.2c-0.5-0.8-1.4-1.1-2.5-1.1c-3,0-4.3,1.9-4.3,4.5v9.5h-2.7v-15.9h2.6v2.7h0.1
		c0.8-1.6,2.6-3.1,5.1-3.1c3,0,5.1,1.4,5.1,5.2v11.1h-2.7V871.8z"/>
</g>
<circle class="st0" cx="31" cy="29.4" r="12.1"/>
<g>
	<path class="st1" d="M56.1,865.1h-4.5v-1.9h0.7c1.5,0,2.6-0.4,3.3-1.1c0.7-0.7,1-1.6,1-3h2.3v22.4h-2.7V865.1z"/>
	<path class="st1" d="M68.8,865.1h-4.5v-1.9H65c1.5,0,2.6-0.4,3.3-1.1c0.7-0.7,1-1.6,1-3h2.3v22.4h-2.7V865.1z"/>
	<path class="st1" d="M84.5,869.2c-1.8,0-3.3,0.7-4.1,2h-2.4l1-11.9h11.9v2.4h-9.6l-0.6,7.1h0.1c0.8-0.9,2.3-1.8,4.3-1.8
		c3.5,0,6.9,2.2,6.9,7.5c0,4.6-3,7.7-7.7,7.7c-5,0-6.9-3.2-7.1-6.3H80c0.2,2.8,1.9,4,4.5,4c2.3,0,4.7-1.6,4.7-5.3
		C89.2,871,87.2,869.2,84.5,869.2z"/>
	<path class="st1" d="M108.3,864.1c-0.3-1.8-1.6-3-3.9-3c-4,0-5.3,4.2-5.5,9.3h0.1c1-1.9,3.1-3.1,5.6-3.1c3.3,0,6.8,2.1,6.8,7.1
		c0,4.4-2.9,7.7-7.6,7.7c-4,0-7.8-2-7.8-10.3c0-8.4,2.7-12.8,8.2-12.8c4,0,6.1,1.9,6.5,5.2H108.3z M108.7,874.6c0-3.3-2-5.1-4.7-5.1
		c-2.7,0-4.7,1.6-4.7,5.1c0,3.6,2.3,5.1,4.7,5.1C106.3,879.7,108.7,878.2,108.7,874.6z"/>
	<path class="st1" d="M126.7,870.1c0,6,2.7,9.6,7.3,9.6c4.1,0,5.8-2.7,6.1-5.4h2.9c-0.4,4.3-3.7,7.7-8.9,7.7
		c-6,0-10.2-3.9-10.2-11.9c0-7.5,4.3-11.9,10.3-11.9c3.9,0,8.3,2.1,8.9,7.2h-3c-0.4-2.4-2.2-4.9-5.9-4.9
		C129.3,860.4,126.7,864.3,126.7,870.1z"/>
	<path class="st1" d="M157.5,871.7c0-1.1,0-2.4-0.6-3.1c-0.5-0.8-1.4-1.1-2.5-1.1c-3,0-4.3,1.9-4.3,4.5v9.5h-2.7v-23.7h2.7v10.5h0.1
		c0.7-1.5,2.4-3,5-3c3,0,5.1,1.4,5.1,5.2v11.1h-2.7V871.7z"/>
	<path class="st1" d="M165.1,870c0.1-2.8,2.2-4.7,6-4.7c3.9,0,5.9,1.7,5.9,5.9v6.5c0,1.3,0.3,1.8,1.4,1.8v2.2h-0.3
		c-2.5,0-3.4-0.9-3.6-2.8h-0.1c-0.8,1.9-2.7,3-5.1,3c-3.2,0-5-1.7-5-4.6c0-1.7,0.8-3.2,2.4-4c1.7-0.9,4.1-1.2,7.7-1.3v-0.7
		c0-2.9-1.1-4-3.3-4c-2.4,0-3.2,1.4-3.3,2.7H165.1z M174.3,874.4V874c-3.4,0.2-5.4,0.4-6.4,1.2c-0.6,0.5-0.9,1.1-0.9,2
		c0,1.6,1.1,2.5,2.8,2.5C171.8,879.6,174.3,878.3,174.3,874.4z"/>
	<path class="st1" d="M182.4,865.7h2.6v2.7h0.1c0.9-1.7,2.7-3,5.1-3c3.4,0,6.4,2.1,6.4,8.1c0,5.8-3,8.6-6.6,8.6
		c-2.3,0-4.2-1.3-4.8-2.7h-0.1v8h-2.7V865.7z M189.5,879.8c2.8,0,4.2-2.3,4.2-6.4c0-3.4-1-5.9-4.2-5.9c-2.8,0-4.5,2.4-4.5,5.1v1.7
		C185,877.3,186.5,879.8,189.5,879.8z"/>
	<path class="st1" d="M206.8,882c-4.9,0-7.2-3.5-7.2-8.3c0-4.7,2.5-8.4,7.1-8.4c4.8,0,6.6,3.7,6.6,7.7v1.4h-10.9
		c0.2,3.3,1.5,5.5,4.5,5.5c2.7,0,3.3-1.5,3.6-2.5h2.6C212.6,880.2,210.2,882,206.8,882z M210.6,872c-0.1-2.7-1.1-4.7-3.9-4.7
		c-2.5,0-3.9,2-4.2,4.9h8.1V872z"/>
	<path class="st1" d="M217.6,857.8h2.7v23.7h-2.7V857.8z"/>
</g>
<g>
	<path class="st1" d="M42.5,638.5v3.6l-17.1,10.2c-1.3,0.8-2.3,1.2-2.3,1.2v0.1h19.4v2.7H19.4v-3.6l17.1-10.2
		c1.5-0.9,2.2-1.2,2.2-1.2v-0.1H19.4v-2.7H42.5z"/>
	<path class="st1" d="M19,667.8c0-4.9,3.5-7.2,8.3-7.2c4.7,0,8.4,2.5,8.4,7.1c0,4.8-3.7,6.6-7.7,6.6h-1.4v-10.9
		c-3.3,0.2-5.5,1.5-5.5,4.5c0,2.7,1.5,3.3,2.5,3.6v2.6C20.8,673.6,19,671.2,19,667.8z M28.9,671.6c2.7-0.1,4.7-1.1,4.7-3.9
		c0-2.5-2-3.9-4.9-4.2v8.1H28.9z"/>
	<path class="st1" d="M35.3,676.6v2.8l-10.7,3.1c-1,0.3-2,0.5-2,0.5v0.1c0,0,1.1,0.3,2,0.6l10.7,3.4v2.8l-10.7,3.3
		c-0.9,0.3-2,0.6-2,0.6v0.1c0,0,1.1,0.2,2,0.5l10.7,3.1v2.6l-15.9-4.9v-2.9l9.3-2.9c1.5-0.5,3.4-1,3.4-1v0c0,0-1.9-0.5-3.4-1
		l-9.3-2.9v-2.9L35.3,676.6z"/>
	<path class="st1" d="M19.4,715v-2.8h23.1v2.8H32.3v12.1h10.2v2.8H19.4v-2.8h10.4V715H19.4z"/>
	<path class="st1" d="M30.9,735.2c2.8,0.1,4.7,2.2,4.7,6c0,3.9-1.7,5.9-5.9,5.9h-6.5c-1.3,0-1.8,0.3-1.8,1.4h-2.2v-0.3
		c0-2.5,0.9-3.4,2.8-3.6v-0.1c-1.9-0.8-3-2.7-3-5.1c0-3.2,1.7-5,4.6-5c1.7,0,3.2,0.8,4,2.4c0.9,1.7,1.2,4.1,1.3,7.7h0.7
		c2.9,0,4-1.1,4-3.3c0-2.4-1.4-3.2-2.7-3.3V735.2z M26.6,744.5H27c-0.2-3.4-0.4-5.4-1.2-6.4c-0.5-0.6-1.1-0.9-2-0.9
		c-1.6,0-2.5,1.1-2.5,2.8C21.3,742,22.7,744.5,26.6,744.5z"/>
	<path class="st1" d="M35.3,750.2v2.8l-10.2,3.4c-1.3,0.5-2.5,0.8-2.5,0.8v0.1c0,0,1.2,0.3,2.5,0.8l10.2,3.5v2.6l-15.9-5.5v-2.9
		L35.3,750.2z"/>
	<path class="st1" d="M19,773.3c0-4.9,3.5-7.2,8.3-7.2c4.7,0,8.4,2.5,8.4,7.1c0,4.8-3.7,6.6-7.7,6.6h-1.4v-10.9
		c-3.3,0.2-5.5,1.5-5.5,4.5c0,2.7,1.5,3.3,2.5,3.6v2.6C20.8,779.1,19,776.7,19,773.3z M28.9,777.1c2.7-0.1,4.7-1.1,4.7-3.9
		c0-2.5-2-3.9-4.9-4.2v8.1H28.9z"/>
	<path class="st1" d="M29.2,794.1c1.1,0,2.4,0,3.2-0.6c0.8-0.5,1.1-1.4,1.1-2.5c0-3-1.9-4.3-4.5-4.3h-9.5V784h15.9v2.6h-2.7v0.1
		c1.6,0.8,3.1,2.6,3.1,5.1c0,3-1.4,5.1-5.2,5.1H19.4v-2.7H29.2z"/>
	<path class="st1" d="M23.1,802v3.4l-7.2-2.4v-2L23.1,802z"/>
	<path class="st1" d="M30.9,819.6c-6,0-9.6,2.7-9.6,7.3c0,4.1,2.7,5.8,5.4,6.1v2.9c-4.3-0.4-7.7-3.7-7.7-8.9c0-6,3.9-10.2,11.9-10.2
		c7.5,0,11.9,4.3,11.9,10.3c0,3.9-2.1,8.3-7.2,8.9v-3c2.4-0.4,4.9-2.2,4.9-5.9C40.5,822.2,36.6,819.6,30.9,819.6z"/>
	<path class="st1" d="M40,856.7v-8H19.4v-2.8H40v-8h2.4v18.8H40z"/>
</g>
</svg>
