<?xml version="1.0" encoding="utf-8"?>
<!-- Generator: Adobe Illustrator 19.2.1, SVG Export Plug-In . SVG Version: 6.00 Build 0)  -->
<svg version="1.1" id="Layer_1" xmlns="http://www.w3.org/2000/svg" xmlns:xlink="http://www.w3.org/1999/xlink" x="0px" y="0px"
	 viewBox="0 0 1286.9 935.9" style="enable-background:new 0 0 1286.9 935.9;" xml:space="preserve">
<style type="text/css">
	.st0{fill:#00FF00;}
</style>
<path class="st0" d="M0,0v936h1287V0H0z M546,305h326v91H546V305z M263.9,856.1c-96.4,0-174.5-78.1-174.5-174.5
	s78.1-174.5,174.5-174.5s174.5,78.1,174.5,174.5S360.3,856.1,263.9,856.1z M263.9,412.7c-96.4,0-174.5-78.1-174.5-174.5
	S167.5,63.7,263.9,63.7s174.5,78.1,174.5,174.5S360.3,412.7,263.9,412.7z M872,843H546v-91h326V843z M1180,724H546V564h634V724z
	 M1180,281H546V120h634V281z"/>
</svg>
