<?xml version="1.0" encoding="utf-8"?>
<!-- Generator: Adobe Illustrator 19.2.1, SVG Export Plug-In . SVG Version: 6.00 Build 0)  -->
<svg version="1.1" id="Layer_1" xmlns="http://www.w3.org/2000/svg" xmlns:xlink="http://www.w3.org/1999/xlink" x="0px" y="0px"
	 viewBox="0 0 1024 768" style="enable-background:new 0 0 1024 768;" xml:space="preserve">
<style type="text/css">
	.st0{fill:#FFFF00;}
</style>
<path class="st0" d="M0,0v768h1024V0H0z M54.6,150.9c0-58.4,47.3-105.7,105.7-105.7s105.7,47.3,105.7,105.7s-47.3,105.7-105.7,105.7
	S54.6,209.3,54.6,150.9z M405.8,674.5c-115.8,0-209.7-93.9-209.7-209.7S290,255.1,405.8,255.1S615.5,349,615.5,464.8
	S521.7,674.5,405.8,674.5z M766,714h-53V60h53V714z M952,714H805V60h147V714z"/>
</svg>
