<?xml version="1.0" encoding="utf-8"?>
<!-- Generator: Adobe Illustrator 19.2.1, SVG Export Plug-In . SVG Version: 6.00 Build 0)  -->
<svg version="1.1" id="Layer_1" xmlns="http://www.w3.org/2000/svg" xmlns:xlink="http://www.w3.org/1999/xlink" x="0px" y="0px"
	 viewBox="0 0 560 430" style="enable-background:new 0 0 560 430;" xml:space="preserve">
<style type="text/css">
	.st0{fill:#FF0000;}
	.st1{fill:#FFFFFF;}
</style>
<g>
	<path class="st0" d="M40.7,27.8h-4l-1,3h-1.2l3.6-10h1.4l3.6,10h-1.3L40.7,27.8z M38.2,23.3L37,26.9h3.3L39,23.3
		c-0.2-0.6-0.4-1.3-0.4-1.3l0,0C38.6,22.1,38.4,22.7,38.2,23.3z"/>
	<path class="st0" d="M44.7,23.9h1.1v1.2l0,0c0.4-0.7,1.2-1.3,2.2-1.3c1.5,0,2.8,0.9,2.8,3.5c0,2.5-1.3,3.7-2.9,3.7
		c-1,0-1.8-0.6-2.1-1.2l0,0v3.5h-1.2v-9.4H44.7z M47.9,30.1c1.2,0,1.8-1,1.8-2.8c0-1.5-0.4-2.6-1.8-2.6c-1.2,0-2,1-2,2.2v0.7
		C45.9,29,46.6,30.1,47.9,30.1z"/>
	<path class="st0" d="M52.7,23.9h1.1v1.3l0,0c0.3-0.7,1.2-1.4,2.2-1.4h0.1V25H56c-1.2,0-2,0.7-2,2v3.7h-1.2L52.7,23.9L52.7,23.9z"/>
	<path class="st0" d="M57.8,21.1h1.3v1.3h-1.3V21.1z M57.9,23.9h1.2v6.9h-1.2V23.9z"/>
	<path class="st0" d="M61.5,20.5h1.2v10.3h-1.2V20.5z"/>
	<path class="st0" d="M72.8,22.2H68v-1h6.2V22l-4,9h-1.3L72.8,22.2z"/>
	<path class="st0" d="M74.8,26.1h5.7V27h-5.7V26.1z"/>
	<path class="st0" d="M85.2,21c1.9,0,3.1,1.2,3.1,2.7c0,1.2-0.8,2-1.6,2.3l0,0c0.8,0.2,1.9,0.9,1.9,2.3c0,1.6-1.3,2.8-3.3,2.8
		S82,29.9,82,28.3c0-1.5,1-2.2,1.8-2.3l0,0c-0.8-0.3-1.6-1.1-1.6-2.3C82.2,22.2,83.4,21,85.2,21z M87.4,28.2c0-1.3-1-1.9-2.1-1.9
		s-2.1,0.6-2.1,1.9s1,1.8,2.1,1.8C86.4,30.1,87.4,29.5,87.4,28.2z M83.4,23.7c0,1.2,0.9,1.8,1.8,1.8s1.8-0.6,1.8-1.8
		c0-1.2-0.9-1.8-1.8-1.8C84.2,21.9,83.4,22.5,83.4,23.7z"/>
</g>
<g>
	<path class="st1" d="M457.9,26.4l-3.5-5.7h1.4l2.7,4.6l0,0l2.8-4.6h1.3l-3.5,5.7v4.3h-1.3v-4.3H457.9z"/>
	<path class="st1" d="M462.9,25.7c0-1.2,1-2,2.6-2c1.7,0,2.6,0.7,2.6,2.6V29c0,0.6,0.1,0.8,0.6,0.8v1h-0.1c-1.1,0-1.5-0.4-1.6-1.2
		l0,0c-0.3,0.8-1.2,1.3-2.2,1.3c-1.4,0-2.2-0.7-2.2-2c0-0.7,0.3-1.4,1-1.7c0.7-0.4,1.8-0.5,3.3-0.6v-0.3c0-1.3-0.5-1.7-1.4-1.7
		c-1,0-1.4,0.6-1.4,1.2C464.1,25.7,462.9,25.7,462.9,25.7z M466.9,27.6v-0.2c-1.5,0.1-2.3,0.2-2.8,0.5c-0.3,0.2-0.4,0.5-0.4,0.9
		c0,0.7,0.5,1.1,1.2,1.1C465.8,29.9,466.9,29.3,466.9,27.6z"/>
	<path class="st1" d="M470.4,20.3h1.2v10.3h-1.2V20.3z"/>
	<path class="st1" d="M476.6,30.9c-2.1,0-3.1-1.5-3.1-3.6c0-2,1.1-3.7,3.1-3.7c2.1,0,2.9,1.6,2.9,3.3v0.6h-4.7
		c0.1,1.4,0.7,2.4,2,2.4c1.2,0,1.4-0.7,1.6-1.1h1.1C479,30.1,478,30.9,476.6,30.9z M478.2,26.6c0-1.2-0.5-2-1.7-2
		c-1.1,0-1.7,0.9-1.8,2.1L478.2,26.6L478.2,26.6L478.2,26.6z"/>
	<path class="st1" d="M490.4,23.3c-0.1-1-0.7-1.9-2.1-1.9c-1.3,0-2.1,0.8-2.1,1.7c0,0.9,0.5,1.4,1.7,1.7l1.4,0.3
		c2,0.3,2.7,1.3,2.7,2.7c0,1.8-1.3,3-3.7,3c-2.3,0-3.7-1.3-3.7-3h1.3c0.1,1.1,0.9,2,2.5,2c1.8,0,2.4-0.9,2.4-1.9
		c0-0.9-0.5-1.5-1.7-1.7l-1.4-0.3c-2-0.3-2.7-1.4-2.7-2.7c0-1.6,1.3-2.8,3.4-2.8s3.2,1.1,3.3,2.8L490.4,23.3L490.4,23.3z"/>
	<path class="st1" d="M498.3,25.9c-0.1-0.7-0.6-1.3-1.6-1.3c-1.3,0-1.9,1.1-1.9,2.7s0.5,2.7,1.9,2.7c1.3,0,1.7-1,1.7-1.5h1.1
		c-0.2,1.6-1.3,2.4-2.8,2.4c-2,0-3.1-1.4-3.1-3.6c0-2.1,1.2-3.7,3.1-3.7c1.4,0,2.6,0.6,2.7,2.3C499.4,25.9,498.3,25.9,498.3,25.9z"
		/>
	<path class="st1" d="M505.5,26.4c0-0.5,0-1-0.3-1.3c-0.2-0.3-0.6-0.5-1.1-0.5c-1.3,0-1.9,0.8-1.9,2v4.1H501V20.3h1.2v4.6l0,0
		c0.3-0.7,1-1.3,2.2-1.3c1.3,0,2.2,0.6,2.2,2.3v4.8h-1.2L505.5,26.4L505.5,26.4z"/>
	<path class="st1" d="M508.5,27.2c0-2.1,1.2-3.6,3.1-3.6c2,0,3.1,1.5,3.1,3.6c0,2.2-1.2,3.6-3.1,3.6
		C509.5,30.9,508.5,29.4,508.5,27.2z M509.7,27.2c0,1.7,0.6,2.7,1.9,2.7c1.3,0,1.8-1,1.8-2.7s-0.6-2.7-1.9-2.7
		C510.3,24.5,509.7,25.6,509.7,27.2z"/>
	<path class="st1" d="M516,27.2c0-2.1,1.2-3.6,3.1-3.6c2,0,3.1,1.5,3.1,3.6c0,2.2-1.2,3.6-3.1,3.6C517.1,30.9,516,29.4,516,27.2z
		 M517.3,27.2c0,1.7,0.6,2.7,1.9,2.7c1.3,0,1.8-1,1.8-2.7s-0.6-2.7-1.9-2.7C517.9,24.5,517.3,25.6,517.3,27.2z"/>
	<path class="st1" d="M524.1,20.3h1.2v10.3h-1.2V20.3z"/>
</g>
<g>
	<path class="st1" d="M532.4,32.1c2.1,0,3.6,1.2,3.6,3.1c0,2-1.5,3.1-3.6,3.1c-2.2,0-3.6-1.2-3.6-3.1
		C528.8,33.2,530.3,32.1,532.4,32.1z M532.4,33.3c-1.7,0-2.7,0.6-2.7,1.9c0,1.3,1,1.8,2.7,1.8s2.7-0.6,2.7-1.9
		C535.1,34,534.1,33.3,532.4,33.3z"/>
	<path class="st1" d="M529,41.7v-1.2h6v-1.3h0.9v1.3h1.6c1.4,0,1.9,0.8,1.9,2.1c0,0.3,0,0.5-0.1,0.7h-1c0-0.1,0-0.3,0-0.7
		c0-0.7-0.3-1-1.1-1h-1.4v1.7H535v-1.7h-6V41.7z"/>
	<path class="st1" d="M531.9,54v-4l-3-1v-1.2l10,3.6v1.4l-10,3.6V55L531.9,54z M536.5,51.6l-3.6-1.3v3.3l3.6-1.3
		c0.6-0.2,1.3-0.4,1.3-0.4l0,0C537.7,52,537.1,51.8,536.5,51.6z"/>
	<path class="st1" d="M535.9,58.1v1.1h-1.3l0,0c0.7,0.3,1.4,1.2,1.4,2.2v0.1h-1.2v-0.2c0-1.2-0.7-2-2-2H529v-1.2L535.9,58.1
		L535.9,58.1z"/>
	<path class="st1" d="M537.9,64.9h-2v1.7H535v-1.7h-4.1c-0.7,0-1,0.3-1,1c0,0.3,0.1,0.7,0.1,0.7h-1c0,0-0.1-0.5-0.1-1.1
		c0-1.3,0.7-1.9,1.8-1.9h4.3v-1.3h0.9v0.2c0,0.9,0.2,1.1,1.6,1.1h0.5L537.9,64.9L537.9,64.9z"/>
</g>
<g>
	<path class="st1" d="M531.9,316h1.1v0.5c0,1,0.7,1.7,1.7,1.7s1.7-0.7,1.7-1.8c0-1.2-0.6-1.9-1.9-2v-1.2c1.6,0,2.9,1.1,2.9,3.1
		c0,1.8-1.1,3-2.6,3c-1,0-1.8-0.7-2.2-1.6l0,0c-0.3,1-1,1.9-2.4,1.9s-2.8-1.2-2.8-3.3c0-2.2,1.3-3.2,2.9-3.3v1.2
		c-1.3,0.2-1.9,1-1.9,2.2s0.7,2,1.8,2c1.2,0,1.8-0.7,1.8-2L531.9,316L531.9,316z"/>
	<path class="st1" d="M534.3,321.5c2,0,3.1,1.4,3.1,3.1c0,2.1-1.3,3-2.7,3c-1.3,0-2.1-0.6-3.6-2.1l-2.5-2.7l0,0v4.9h-1v-6.4h0.9
		l3.3,3.3c1.1,1.1,1.8,1.8,3,1.8c1,0,1.7-0.7,1.7-1.7s-0.6-1.9-2.1-1.9L534.3,321.5L534.3,321.5z"/>
	<path class="st1" d="M537.6,333.5v6.4h-1.1v-5.2h-3.3v4.8H532v-4.8h-3.4v5.3h-1.1v-6.5L537.6,333.5L537.6,333.5z"/>
	<path class="st1" d="M527.5,347.7v-1.1h1.1l0,0c-0.7-0.3-1.3-1.1-1.3-2.2c0-1.5,0.9-2.8,3.6-2.8c2.4,0,3.7,1.2,3.7,3
		c0,1-0.6,1.7-1.2,2l0,0h4.5v1.2h-10.4V347.7z M531.3,346.5c1.5,0,2.4-0.8,2.4-1.9c0-1.3-1-1.9-2.7-1.9c-1.6,0-2.7,0.5-2.7,1.8
		c0,1.2,1,2,2.2,2H531.3z"/>
	<path class="st1" d="M526.8,349.7v1.1c-0.6,0.1-1,0.6-1,1.7c0,1.3,0.5,2,2,2h1l0,0c-0.7-0.3-1.3-1.2-1.3-2.2c0-1.4,0.9-2.8,3.5-2.8
		c2.3,0,3.5,1.2,3.5,2.9c0,1.1-0.6,1.8-1.3,2.1l0,0h1.1v1.1h-6.8c-2,0-2.8-1.3-2.8-3.1C524.9,351.2,525.4,349.8,526.8,349.7z
		 M531.3,354.5c1.4,0,2.3-0.8,2.3-2c0-1.3-1-1.8-2.6-1.8c-1.5,0-2.6,0.4-2.6,1.9c0,1.1,1,1.9,2.1,1.9H531.3z"/>
	<path class="st1" d="M527.3,360.6c0-2.1,1.5-3.1,3.6-3.1c2,0,3.7,1.1,3.7,3.1c0,2.1-1.6,2.9-3.3,2.9h-0.6v-4.7
		c-1.4,0.1-2.4,0.7-2.4,2c0,1.2,0.7,1.4,1.1,1.6v1.1C528.1,363.1,527.3,362.1,527.3,360.6z M531.7,362.2c1.2,0,2-0.5,2-1.7
		c0-1.1-0.9-1.7-2.1-1.8L531.7,362.2L531.7,362.2L531.7,362.2z"/>
	<path class="st1" d="M534.4,364.5v1.2l-4.7,1.3c-0.4,0.1-0.9,0.2-0.9,0.2l0,0c0,0,0.5,0.1,0.9,0.3l4.7,1.5v1.2l-4.7,1.4
		c-0.4,0.1-0.9,0.3-0.9,0.3l0,0c0,0,0.5,0.1,0.9,0.2l4.7,1.3v1.1l-6.9-2.1v-1.3l4-1.3c0.7-0.2,1.5-0.4,1.5-0.4l0,0
		c0,0-0.8-0.2-1.5-0.4l-4-1.3v-1.3L534.4,364.5z"/>
	<path class="st1" d="M531,375.5c2.1,0,3.6,1.2,3.6,3.1c0,2-1.5,3.1-3.6,3.1c-2.2,0-3.6-1.2-3.6-3.1
		C527.3,376.6,528.8,375.5,531,375.5z M531,376.8c-1.7,0-2.7,0.6-2.7,1.9s1,1.8,2.7,1.8s2.7-0.6,2.7-1.9
		C533.7,377.4,532.7,376.8,531,376.8z"/>
	<path class="st1" d="M531,383.1c2.1,0,3.6,1.2,3.6,3.1c0,2-1.5,3.1-3.6,3.1c-2.2,0-3.6-1.2-3.6-3.1
		C527.3,384.1,528.8,383.1,531,383.1z M531,384.3c-1.7,0-2.7,0.6-2.7,1.9s1,1.8,2.7,1.8s2.7-0.6,2.7-1.9
		C533.7,384.9,532.7,384.3,531,384.3z"/>
	<path class="st1" d="M527.5,396.8v-1.1h1.1l0,0c-0.7-0.3-1.3-1.1-1.3-2.2c0-1.5,0.9-2.8,3.6-2.8c2.4,0,3.7,1.2,3.7,3
		c0,1-0.6,1.7-1.2,2l0,0h4.5v1.2h-10.4V396.8z M531.3,395.7c1.5,0,2.4-0.8,2.4-1.9c0-1.3-1-1.9-2.7-1.9c-1.6,0-2.7,0.5-2.7,1.8
		c0,1.2,1,2,2.2,2H531.3z"/>
</g>
<g>
	<path class="st1" d="M460.7,404.3v-1.1h0.5c1,0,1.7-0.7,1.7-1.7s-0.7-1.7-1.8-1.7c-1.2,0-1.9,0.6-2,1.9H458c0-1.6,1.1-2.9,3.1-2.9
		c1.8,0,3,1.1,3,2.6c0,1-0.7,1.8-1.6,2.2l0,0c1,0.3,1.9,1,1.9,2.4s-1.2,2.8-3.3,2.8c-2.2,0-3.2-1.3-3.3-2.9h1.2
		c0.2,1.3,1,1.9,2.2,1.9s2-0.7,2-1.8c0-1.2-0.7-1.8-2-1.8L460.7,404.3L460.7,404.3z"/>
	<path class="st1" d="M469.2,403.3c-0.8,0-1.4,0.3-1.8,0.9h-1l0.4-5.2h5.2v1h-4.2l-0.3,3.1l0,0c0.3-0.4,1-0.8,1.9-0.8
		c1.5,0,3,1,3,3.3c0,2-1.3,3.3-3.3,3.3c-2.2,0-3-1.4-3.1-2.7h1.2c0.1,1.2,0.8,1.7,2,1.7c1,0,2-0.7,2-2.3
		C471.3,404.1,470.4,403.3,469.2,403.3z"/>
	<path class="st1" d="M477,404.3v-1.1h0.5c1,0,1.7-0.7,1.7-1.7s-0.7-1.7-1.8-1.7c-1.2,0-1.9,0.6-2,1.9h-1.2c0-1.6,1.1-2.9,3.1-2.9
		c1.8,0,3,1.1,3,2.6c0,1-0.7,1.8-1.6,2.2l0,0c1,0.3,1.9,1,1.9,2.4s-1.2,2.8-3.3,2.8c-2.2,0-3.2-1.3-3.3-2.9h1.2
		c0.2,1.3,1,1.9,2.2,1.9s2-0.7,2-1.8c0-1.2-0.7-1.8-2-1.8L477,404.3L477,404.3z"/>
	<path class="st1" d="M487.3,403.7c0,2.6,1.2,4.2,3.2,4.2c1.8,0,2.5-1.2,2.7-2.3h1.3c-0.2,1.9-1.6,3.3-3.9,3.3
		c-2.6,0-4.4-1.7-4.4-5.2c0-3.3,1.9-5.2,4.5-5.2c1.7,0,3.6,0.9,3.9,3.1h-1.3c-0.2-1-1-2.1-2.6-2.1
		C488.4,399.5,487.3,401.1,487.3,403.7z"/>
	<path class="st1" d="M496.3,401.8h1.1v1.3l0,0c0.3-0.7,1.2-1.4,2.2-1.4h0.1v1.2h-0.2c-1.2,0-2,0.7-2,2v3.7h-1.2V401.8L496.3,401.8z
		"/>
	<path class="st1" d="M500.7,405.2c0-2.1,1.2-3.6,3.1-3.6c2,0,3.1,1.5,3.1,3.6c0,2.2-1.2,3.6-3.1,3.6
		C501.8,408.8,500.7,407.4,500.7,405.2z M501.9,405.2c0,1.7,0.6,2.7,1.9,2.7s1.8-1,1.8-2.7s-0.6-2.7-1.9-2.7
		C502.6,402.5,501.9,403.5,501.9,405.2z"/>
	<path class="st1" d="M507.8,401.8h1.2l1.3,4.7c0.1,0.4,0.2,0.9,0.2,0.9l0,0c0,0,0.1-0.5,0.3-0.9l1.5-4.7h1.2l1.4,4.7
		c0.1,0.4,0.3,0.9,0.3,0.9l0,0c0,0,0.1-0.5,0.2-0.9l1.3-4.7h1.1l-2.1,6.9h-1.3l-1.3-4c-0.2-0.7-0.4-1.5-0.4-1.5l0,0
		c0,0-0.2,0.8-0.4,1.5l-1.3,4h-1L507.8,401.8z"/>
	<path class="st1" d="M524,404.4c0-0.5,0-1-0.3-1.4c-0.2-0.3-0.6-0.5-1.1-0.5c-1.3,0-1.9,0.8-1.9,2v4.1h-1.2v-6.9h1.1v1.2l0,0
		c0.3-0.7,1.1-1.3,2.2-1.3c1.3,0,2.2,0.6,2.2,2.3v4.8h-1V404.4L524,404.4z"/>
</g>
<circle class="st0" cx="25.7" cy="25.9" r="5.3"/>
<g>
	<path class="st1" d="M36.6,402.3h-2v-0.8h0.3c0.7,0,1.1-0.2,1.4-0.5c0.3-0.3,0.4-0.7,0.4-1.3h1v9.7h-1.2L36.6,402.3L36.6,402.3z"/>
	<path class="st1" d="M42.1,402.3h-2v-0.8h0.3c0.7,0,1.1-0.2,1.4-0.5c0.3-0.3,0.4-0.7,0.4-1.3h1v9.7H42L42.1,402.3L42.1,402.3z"/>
	<path class="st1" d="M48.9,404c-0.8,0-1.4,0.3-1.8,0.9h-1l0.4-5.2h5.2v1h-4.2l-0.3,3.1l0,0c0.3-0.4,1-0.8,1.9-0.8c1.5,0,3,1,3,3.3
		c0,2-1.3,3.3-3.3,3.3c-2.2,0-3-1.4-3.1-2.7H47c0.1,1.2,0.8,1.7,2,1.7c1,0,2-0.7,2-2.3C51,404.8,50.1,404,48.9,404z"/>
	<path class="st1" d="M59.3,401.8c-0.1-0.8-0.7-1.3-1.7-1.3c-1.7,0-2.3,1.8-2.4,4l0,0c0.4-0.8,1.3-1.3,2.4-1.3c1.4,0,3,0.9,3,3.1
		c0,1.9-1.3,3.3-3.3,3.3c-1.7,0-3.4-0.9-3.4-4.5c0-3.7,1.2-5.6,3.6-5.6c1.7,0,2.7,0.8,2.8,2.3H59.3L59.3,401.8z M59.4,406.4
		c0-1.4-0.9-2.2-2-2.2c-1.2,0-2,0.7-2,2.2c0,1.6,1,2.2,2,2.2S59.4,408,59.4,406.4z"/>
	<path class="st1" d="M67.3,404.4c0,2.6,1.2,4.2,3.2,4.2c1.8,0,2.5-1.2,2.7-2.3h1.3c-0.2,1.9-1.6,3.3-3.9,3.3
		c-2.6,0-4.4-1.7-4.4-5.2c0-3.3,1.9-5.2,4.5-5.2c1.7,0,3.6,0.9,3.9,3.1h-1.3c-0.2-1-1-2.1-2.6-2.1C68.4,400.2,67.3,401.9,67.3,404.4
		z"/>
	<path class="st1" d="M80.7,405.1c0-0.5,0-1-0.3-1.3c-0.2-0.3-0.6-0.5-1.1-0.5c-1.3,0-1.9,0.8-1.9,2v4.1h-1.2v-10.3h1.2v4.6l0,0
		c0.3-0.7,1-1.3,2.2-1.3c1.3,0,2.2,0.6,2.2,2.3v4.8h-1.2L80.7,405.1L80.7,405.1z"/>
	<path class="st1" d="M84,404.4c0-1.2,1-2,2.6-2c1.7,0,2.6,0.7,2.6,2.6v2.8c0,0.6,0.1,0.8,0.6,0.8v1h-0.1c-1.1,0-1.5-0.4-1.6-1.2
		l0,0c-0.3,0.8-1.2,1.3-2.2,1.3c-1.4,0-2.2-0.7-2.2-2c0-0.7,0.3-1.4,1-1.7c0.7-0.4,1.8-0.5,3.3-0.6V405c0-1.3-0.5-1.7-1.4-1.7
		c-1,0-1.4,0.6-1.4,1.2L84,404.4L84,404.4z M88,406.3v-0.2c-1.5,0.1-2.3,0.2-2.8,0.5c-0.3,0.2-0.4,0.5-0.4,0.9
		c0,0.7,0.5,1.1,1.2,1.1C86.9,408.6,88,408,88,406.3z"/>
	<path class="st1" d="M91.5,402.5h1.1v1.2l0,0c0.4-0.7,1.2-1.3,2.2-1.3c1.5,0,2.8,0.9,2.8,3.5c0,2.5-1.3,3.7-2.9,3.7
		c-1,0-1.8-0.6-2.1-1.2l0,0v3.5h-1.2L91.5,402.5L91.5,402.5z M94.6,408.6c1.2,0,1.8-1,1.8-2.8c0-1.5-0.4-2.6-1.8-2.6
		c-1.2,0-2,1-2,2.2v0.7C92.6,407.6,93.3,408.6,94.6,408.6z"/>
	<path class="st1" d="M102.1,409.6c-2.1,0-3.1-1.5-3.1-3.6c0-2,1.1-3.7,3.1-3.7c2.1,0,2.9,1.6,2.9,3.3v0.6h-4.7
		c0.1,1.4,0.7,2.4,2,2.4c1.2,0,1.4-0.7,1.6-1.1h1.1C104.6,408.8,103.6,409.6,102.1,409.6z M103.7,405.3c0-1.2-0.5-2-1.7-2
		c-1.1,0-1.7,0.9-1.8,2.1L103.7,405.3L103.7,405.3L103.7,405.3z"/>
	<path class="st1" d="M106.8,399.1h1.2v10.3h-1.2V399.1z"/>
</g>
<g>
	<path class="st1" d="M30.7,303.7v1.6l-7.4,4.4c-0.6,0.3-1,0.5-1,0.5l0,0h8.4v1.2h-10v-1.6l7.4-4.4c0.7-0.4,1-0.5,1-0.5l0,0h-8.4
		v-1.2H30.7z"/>
	<path class="st1" d="M20.4,316.5c0-2.1,1.5-3.1,3.6-3.1c2,0,3.7,1.1,3.7,3.1c0,2.1-1.6,2.9-3.3,2.9h-0.6v-4.7
		c-1.4,0.1-2.4,0.7-2.4,2c0,1.2,0.7,1.4,1.1,1.6v1.1C21.2,319,20.4,318,20.4,316.5z M24.8,318.1c1.2,0,2-0.5,2-1.7
		c0-1.1-0.9-1.7-2.1-1.8L24.8,318.1L24.8,318.1L24.8,318.1z"/>
	<path class="st1" d="M27.5,320.3v1.2l-4.7,1.3c-0.4,0.1-0.9,0.2-0.9,0.2l0,0c0,0,0.5,0.1,0.9,0.3l4.7,1.5v1.2l-4.7,1.4
		c-0.4,0.1-0.9,0.3-0.9,0.3l0,0c0,0,0.5,0.1,0.9,0.2l4.7,1.3v1.1l-6.9-2.1v-1.3l4-1.3c0.7-0.2,1.5-0.4,1.5-0.4l0,0
		c0,0-0.8-0.2-1.5-0.4l-4-1.3v-1.3L27.5,320.3z"/>
	<path class="st1" d="M20.6,337v-1.2h10v1.2h-4.4v5.3h4.4v1.2h-10v-1.2h4.5V337H20.6z"/>
	<path class="st1" d="M25.6,345.8c1.2,0,2,1,2,2.6c0,1.7-0.7,2.6-2.6,2.6h-2.8c-0.6,0-0.8,0.1-0.8,0.6h-1v-0.1
		c0-1.1,0.4-1.5,1.2-1.6l0,0c-0.8-0.3-1.3-1.2-1.3-2.2c0-1.4,0.7-2.2,2-2.2c0.7,0,1.4,0.3,1.7,1c0.4,0.7,0.5,1.8,0.6,3.3h0.3
		c1.3,0,1.7-0.5,1.7-1.4c0-1-0.6-1.4-1.2-1.4C25.6,347,25.6,345.8,25.6,345.8z M23.8,349.8H24c-0.1-1.5-0.2-2.3-0.5-2.8
		c-0.2-0.3-0.5-0.4-0.9-0.4c-0.7,0-1.1,0.5-1.1,1.2C21.4,348.7,22.1,349.8,23.8,349.8z"/>
	<path class="st1" d="M27.5,352.3v1.2l-4.4,1.5c-0.6,0.2-1.1,0.3-1.1,0.3l0,0c0,0,0.5,0.1,1.1,0.3l4.4,1.5v1.1l-6.9-2.4v-1.3
		L27.5,352.3z"/>
	<path class="st1" d="M20.4,362.3c0-2.1,1.5-3.1,3.6-3.1c2,0,3.7,1.1,3.7,3.1c0,2.1-1.6,2.9-3.3,2.9h-0.6v-4.7
		c-1.4,0.1-2.4,0.7-2.4,2c0,1.2,0.7,1.4,1.1,1.6v1.1C21.2,364.9,20.4,363.8,20.4,362.3z M24.8,364c1.2,0,2-0.5,2-1.7
		c0-1.1-0.9-1.7-2.1-1.8L24.8,364L24.8,364L24.8,364z"/>
	<path class="st1" d="M24.9,371.4c0.5,0,1,0,1.4-0.3c0.3-0.2,0.5-0.6,0.5-1.1c0-1.3-0.8-1.9-2-1.9h-4.1V367h6.9v1.1h-1.2l0,0
		c0.7,0.3,1.3,1.1,1.3,2.2c0,1.3-0.6,2.2-2.3,2.2h-4.9v-1.2L24.9,371.4L24.9,371.4z"/>
	<path class="st1" d="M22.2,374.8v1.5l-3.1-1v-0.9L22.2,374.8z"/>
	<path class="st1" d="M25.6,382.5c-2.6,0-4.2,1.2-4.2,3.2c0,1.8,1.2,2.5,2.3,2.7v1.3c-1.9-0.2-3.3-1.6-3.3-3.9
		c0-2.6,1.7-4.4,5.2-4.4c3.3,0,5.2,1.9,5.2,4.5c0,1.7-0.9,3.6-3.1,3.9v-1.3c1-0.2,2.1-1,2.1-2.6C29.8,383.6,28.1,382.5,25.6,382.5z"
		/>
	<path class="st1" d="M29.6,398.6v-3.5h-9v-1.2h9v-3.5h1v8.2H29.6z"/>
</g>
</svg>
